:SAMPLES-PER-SECOND 30
:FULLY-SPECIFIED
:DEGREES
1664
root  3.02435 32.2287 3.99476 6.28534 -77.6814 -37.4796
RightUpLeg  -8.40683 -33.4449 -13.495
RightLeg  62.8957 4.32971 8.60193
RightFoot  -13.5977 -0.228168 -7.05404
RightToes  3.49245e-010 0 -3.6325e-017
Spine  81.6945 -18.6538 12.4784
Spine1  -0.225952 -6.96832 0.92122
HEad  -41.2496 -1.65778 -3.87559
LeftShoulder1  0.680932 -2.09768 -4.22895
LeftArm  -36.1875 -24.8097 -33.6749
LeftForeArm  39.5295 -77.7602 -67.0831
LeftHand  -0.263503 1.07931 7.06067
RightShoulder  0.418973 0.844513 1.41094
RightArm  -38.2036 20.2767 30.6479
RightForeArm  74.4471 76.4297 119.085
RightHand  -0.478135 1.95138 -7.74475
LeftUpLeg  -21.5464 -2.40816 11.3281
LeftLeg  59.2345 0.233393 0.984301
LeftFoot  -8.80382 0.0833183 -1.26338
LeftToes  -2.21735e-009 9.83027e-011 -4.04511e-011
1665
root  3.06084 31.2634 4.22639 -3.05746 -77.2312 -38.4258
RightUpLeg  2.23601 -31.1266 -21.0723
RightLeg  66.8675 3.67548 8.70907
RightFoot  -14.8221 -0.285106 -6.05419
RightToes  3.49245e-010 0 -3.6325e-017
Spine  94.9317 -21.5282 10.0471
Spine1  -0.616318 -8.06094 0.442063
HEad  -42.1786 -2.03576 -3.95109
LeftShoulder1  0.609627 -2.81914 -1.36626
LeftArm  -39.9967 -25.7276 -32.0195
LeftForeArm  35.9274 -77.4596 -64.3973
LeftHand  -0.300173 0.140289 6.65644
RightShoulder  0.341933 1.4814 -1.85971
RightArm  -42.1995 20.6704 28.3248
RightForeArm  68.7464 76.7397 115.756
RightHand  -0.507493 1.96651 -8.18635
LeftUpLeg  -13.174 -5.02836 10.2792
LeftLeg  63.5145 0.454787 1.65566
LeftFoot  -10.5909 0.0704624 -0.6401
LeftToes  -2.21735e-009 9.83027e-011 -4.04511e-011
1666
root  3.13896 30.0428 4.4375 -11.6767 -76.2206 -41.3187
RightUpLeg  13.4397 -27.8798 -27.8872
RightLeg  70.5459 2.49793 7.02258
RightFoot  -16.5705 -0.354231 -5.37002
RightToes  3.49245e-010 0 -3.6325e-017
Spine  108.087 -24.5213 7.47005
Spine1  0.0305786 -9.63425 0.772981
HEad  -42.7771 -2.48794 -3.95993
LeftShoulder1  0.544731 -3.40839 0.669774
LeftArm  -43.7008 -26.7776 -29.3004
LeftForeArm  29.6605 -76.8813 -60.0041
LeftHand  -0.34213 0.0411064 7.49503
RightShoulder  0.244048 1.62801 -4.23471
RightArm  -45.7407 21.7529 25.7783
RightForeArm  60.659 77.1972 110.113
RightHand  -0.566397 2.32244 -8.70597
LeftUpLeg  -4.13688 -8.00552 8.9593
LeftLeg  68.3292 0.564357 2.36271
LeftFoot  -12.9206 0.0755667 0.131527
LeftToes  -2.21735e-009 9.83027e-011 -4.04511e-011
1667
root  3.14252 28.6997 4.56175 -20.1172 -76.8004 -44.3287
RightUpLeg  22.7635 -21.8845 -31.6739
RightLeg  73.8034 1.45596 4.67549
RightFoot  -20.0694 -0.518571 -4.93307
RightToes  3.49245e-010 0 -3.6325e-017
Spine  120.518 -25.2049 4.22351
Spine1  1.45447 -10.6511 1.55411
HEad  -43.3243 -2.84857 -4.57443
LeftShoulder1  0.458318 -3.77828 2.4008
LeftArm  -46.9939 -27.3324 -27.6366
LeftForeArm  26.1445 -76.4412 -57.1432
LeftHand  -0.276177 0.905352 7.07265
RightShoulder  0.162275 1.90419 -6.26954
RightArm  -48.829 22.0491 23.0835
RightForeArm  52.6721 77.512 104.465
RightHand  -0.663538 2.94231 -9.51461
LeftUpLeg  5.42594 -9.57901 7.64979
LeftLeg  72.8497 0.475879 2.78774
LeftFoot  -15.4135 0.080264 -0.390387
LeftToes  -2.21735e-009 9.83027e-011 -4.04511e-011
1668
root  3.05055 27.3274 4.69151 -28.7296 -78.3894 -47.3529
RightUpLeg  30.7016 -14.03 -32.3457
RightLeg  77.0064 0.843053 2.94614
RightFoot  -23.1873 -0.707824 -5.33953
RightToes  3.49245e-010 0 -3.6325e-017
Spine  133.471 -25.6101 0.602397
Spine1  2.10704 -11.4057 -0.0417624
HEad  -42.9655 -3.68306 -3.84342
LeftShoulder1  0.308577 -4.84217 5.43117
LeftArm  -49.7012 -26.8926 -26.1172
LeftForeArm  20.547 -75.6589 -52.6429
LeftHand  -0.217075 1.46895 6.28717
RightShoulder  0.141128 2.20581 -6.86526
RightArm  -51.1649 21.4762 19.9358
RightForeArm  46.8038 77.6594 100.382
RightHand  -0.669348 1.70756 -11.058
LeftUpLeg  15.7635 -10.0536 6.28646
LeftLeg  76.8167 0.429999 3.55956
LeftFoot  -17.4311 0.0951443 -0.167606
LeftToes  -2.21735e-009 9.83027e-011 -4.04511e-011
1669
root  2.91511 25.6141 4.79699 -40.3371 -79.1654 -50.3236
RightUpLeg  40.2392 -5.07496 -32.0723
RightLeg  81.2125 0.469281 1.94393
RightFoot  -24.967 -0.63943 -3.93546
RightToes  3.49245e-010 0 -3.6325e-017
Spine  147.361 -28.4215 -2.93854
Spine1  3.55898 -15.6302 -0.163619
HEad  -43.0281 -4.73279 -4.00904
LeftShoulder1  0.181786 -5.15345 7.2595
LeftArm  -50.9932 -26.0025 -26.154
LeftForeArm  20.9328 -75.8636 -54.119
LeftHand  -0.275128 1.08587 7.38613
RightShoulder  0.0615405 2.32074 -8.51325
RightArm  -53.495 20.2059 17.3
RightForeArm  43.0122 77.6324 99.3071
RightHand  -0.778341 2.78324 -11.2666
LeftUpLeg  28.4973 -10.8101 3.42028
LeftLeg  81.0822 0.273056 4.66833
LeftFoot  -19.2846 0.0971481 -0.260926
LeftToes  -2.21735e-009 9.83027e-011 -4.04511e-011
